<svg width="31" height="39" viewBox="0 0 31 39" fill="none" xmlns="http://www.w3.org/2000/svg">
<path d="M13.4716 14.6831C14.1634 14.6831 14.8076 14.6831 15.45 14.6831C16.1133 14.6831 16.3147 14.8758 16.2559 15.5301C16.2188 16.0227 16.0655 16.4998 15.8084 16.9232C15.5513 17.3465 15.1975 17.7042 14.7756 17.9675C14.4669 18.1671 14.0172 18.1799 13.6264 18.2185C13.1292 18.2681 12.511 18.0857 12.1564 18.3204C11.8244 18.5422 11.7578 19.1683 11.6004 19.6256C10.6311 22.4518 9.64709 25.2729 8.71668 28.1112C8.3441 29.2072 8.1685 30.3594 8.19786 31.5155C8.23418 32.539 8.82044 32.9304 9.74134 32.4645C10.3005 32.1733 10.8202 31.8133 11.2883 31.393C12.7583 30.0964 13.904 28.5188 15.0713 26.9636C15.2278 26.7546 15.1249 26.6373 15.022 26.4788C14.1262 25.0931 13.6273 23.5909 13.9066 21.9397C14.0174 21.2687 14.2519 20.6237 14.5983 20.0367C16.4228 17.0392 18.3044 14.0733 20.154 11.0895C20.3088 10.8403 20.4826 10.7041 20.767 10.7204C21.125 10.7409 21.4891 10.7409 21.8375 10.8111C22.4316 10.9319 23.0031 11.7155 22.9521 12.3073C22.9417 12.4238 22.851 12.5386 22.7844 12.6456C21.2354 15.1287 19.6865 17.6107 18.1375 20.0915C18.051 20.2234 17.9775 20.3578 17.8781 20.5291L19.6741 21.6374C19.847 21.3744 20.0148 21.1175 20.1773 20.8572C21.6363 18.5208 23.0942 16.1839 24.5509 13.8464C24.8683 13.3385 25.8566 13.1681 26.4273 13.5235C26.8311 13.7753 26.9159 14.5512 26.6003 15.0651C25.0507 17.5465 23.5015 20.0281 21.9525 22.5101C21.8851 22.618 21.822 22.7293 21.7286 22.8869L23.5124 23.9917C23.6119 23.8478 23.7018 23.7279 23.7814 23.6003C25.279 21.2023 26.8035 18.8231 28.257 16.4011C28.749 15.5815 29.177 15.6903 29.8766 15.8872C30.4819 16.0585 30.7698 16.5784 30.9868 17.1162C31.0284 17.219 30.9644 17.3954 30.8961 17.5051C28.9825 20.5882 27.0914 23.6714 25.132 26.7263C24.1411 28.2679 22.5656 28.9094 20.7861 29.0832C19.7484 29.1852 19.0299 29.0884 18.3468 28.8451C17.9914 29.5209 17.6507 30.2094 17.2745 30.8775C16.064 33.0246 14.7323 35.0843 12.9078 36.7818C11.9247 37.6956 10.8628 38.5803 9.52084 38.8261C6.40795 39.399 3.75507 38.5743 1.66251 36.0855C-0.0149938 34.0934 -0.270943 31.8418 0.226255 29.4549C0.49604 28.154 0.971621 26.8856 1.41694 25.6301C2.2652 23.2321 3.15843 20.8435 4.03263 18.4514C4.05182 18.379 4.06683 18.3055 4.0776 18.2313H1.66165C0.569539 18.2313 0.161403 17.7175 0.407841 16.6435C0.703566 15.3588 1.55356 14.6857 2.88951 14.6857C3.6954 14.6857 4.50216 14.6994 5.31065 14.6737C5.46889 14.6685 5.70841 14.5452 5.76462 14.4167C7.34182 10.7563 8.92766 7.10019 10.4409 3.41323C10.7746 2.59875 10.8672 1.6798 11.0124 0.800234C11.1136 0.185312 11.4344 -0.0964563 12.0795 0.0294401C12.9675 0.200728 13.7224 0.628947 14.3744 1.23274C16.0847 2.80344 16.6814 4.727 16.0173 6.93661C15.2823 9.38774 14.4375 11.8063 13.6394 14.2386C13.5953 14.3619 13.5434 14.4895 13.4716 14.6831Z" fill="#C8131B"/>
</svg>
